<mxfile host="app.diagrams.net" agent="Mozilla/5.0 (Macintosh; Intel Mac OS X 10_15_7) AppleWebKit/605.1.15 (KHTML, like Gecko) Version/18.1 Safari/605.1.15" version="26.0.7">
  <diagram name="第 1 页" id="J0MASKz7g9fQ22zX0HNe">
    <mxGraphModel dx="954" dy="560" grid="1" gridSize="10" guides="1" tooltips="1" connect="1" arrows="1" fold="1" page="1" pageScale="1" pageWidth="827" pageHeight="1169" math="0" shadow="0">
      <root>
        <mxCell id="0" />
        <mxCell id="1" parent="0" />
        <mxCell id="W-Ca-vhzfrDZo02QOTq5-52" value="" style="rounded=1;whiteSpace=wrap;html=1;" vertex="1" parent="1">
          <mxGeometry x="570" y="67" width="180" height="100" as="geometry" />
        </mxCell>
        <mxCell id="W-Ca-vhzfrDZo02QOTq5-53" value="分布式缓存服务器2" style="text;html=1;align=center;verticalAlign=middle;whiteSpace=wrap;rounded=0;fontSize=16;" vertex="1" parent="1">
          <mxGeometry x="583.75" y="77" width="152.5" height="20" as="geometry" />
        </mxCell>
        <mxCell id="W-Ca-vhzfrDZo02QOTq5-50" value="" style="rounded=1;whiteSpace=wrap;html=1;" vertex="1" parent="1">
          <mxGeometry x="579.5" y="260" width="180" height="100" as="geometry" />
        </mxCell>
        <mxCell id="W-Ca-vhzfrDZo02QOTq5-51" value="分布式文件服务器2" style="text;html=1;align=center;verticalAlign=middle;whiteSpace=wrap;rounded=0;fontSize=16;" vertex="1" parent="1">
          <mxGeometry x="588.5" y="270" width="161" height="20" as="geometry" />
        </mxCell>
        <mxCell id="W-Ca-vhzfrDZo02QOTq5-48" value="" style="rounded=1;whiteSpace=wrap;html=1;" vertex="1" parent="1">
          <mxGeometry x="590" y="505" width="180" height="100" as="geometry" />
        </mxCell>
        <mxCell id="W-Ca-vhzfrDZo02QOTq5-49" value="分布式数据服务器2" style="text;html=1;align=center;verticalAlign=middle;whiteSpace=wrap;rounded=0;fontSize=16;" vertex="1" parent="1">
          <mxGeometry x="600" y="515" width="150" height="20" as="geometry" />
        </mxCell>
        <mxCell id="W-Ca-vhzfrDZo02QOTq5-43" value="" style="rounded=1;whiteSpace=wrap;html=1;" vertex="1" parent="1">
          <mxGeometry x="160" y="175" width="240" height="210" as="geometry" />
        </mxCell>
        <mxCell id="W-Ca-vhzfrDZo02QOTq5-44" value="应用服务器3(仿真)" style="text;html=1;align=center;verticalAlign=middle;whiteSpace=wrap;rounded=0;fontSize=16;" vertex="1" parent="1">
          <mxGeometry x="170" y="180" width="140" height="30" as="geometry" />
        </mxCell>
        <mxCell id="W-Ca-vhzfrDZo02QOTq5-29" value="" style="rounded=1;whiteSpace=wrap;html=1;" vertex="1" parent="1">
          <mxGeometry x="200" y="215" width="240" height="210" as="geometry" />
        </mxCell>
        <mxCell id="W-Ca-vhzfrDZo02QOTq5-30" value="应用服务器2(仿真)" style="text;html=1;align=center;verticalAlign=middle;whiteSpace=wrap;rounded=0;fontSize=16;" vertex="1" parent="1">
          <mxGeometry x="210" y="220" width="140" height="30" as="geometry" />
        </mxCell>
        <mxCell id="W-Ca-vhzfrDZo02QOTq5-1" value="" style="rounded=1;whiteSpace=wrap;html=1;" vertex="1" parent="1">
          <mxGeometry x="600" y="290" width="180" height="100" as="geometry" />
        </mxCell>
        <mxCell id="W-Ca-vhzfrDZo02QOTq5-4" value="分布式文件服务器1" style="text;html=1;align=center;verticalAlign=middle;whiteSpace=wrap;rounded=0;fontSize=16;" vertex="1" parent="1">
          <mxGeometry x="609" y="300" width="161" height="20" as="geometry" />
        </mxCell>
        <mxCell id="W-Ca-vhzfrDZo02QOTq5-7" value="" style="verticalLabelPosition=bottom;verticalAlign=top;html=1;shape=card;whiteSpace=wrap;size=20;arcSize=12;fillColor=#dae8fc;strokeColor=#6c8ebf;" vertex="1" parent="1">
          <mxGeometry x="650" y="330" width="80" height="40" as="geometry" />
        </mxCell>
        <mxCell id="W-Ca-vhzfrDZo02QOTq5-8" value="" style="verticalLabelPosition=bottom;verticalAlign=top;html=1;shape=card;whiteSpace=wrap;size=20;arcSize=12;fillColor=#dae8fc;strokeColor=#6c8ebf;" vertex="1" parent="1">
          <mxGeometry x="660" y="340" width="80" height="40" as="geometry" />
        </mxCell>
        <mxCell id="W-Ca-vhzfrDZo02QOTq5-5" value="文件" style="text;html=1;align=center;verticalAlign=middle;whiteSpace=wrap;rounded=0;labelBackgroundColor=none;" vertex="1" parent="1">
          <mxGeometry x="670" y="345" width="60" height="30" as="geometry" />
        </mxCell>
        <mxCell id="W-Ca-vhzfrDZo02QOTq5-9" value="" style="rounded=1;whiteSpace=wrap;html=1;" vertex="1" parent="1">
          <mxGeometry x="599.5" y="535" width="180" height="100" as="geometry" />
        </mxCell>
        <mxCell id="W-Ca-vhzfrDZo02QOTq5-11" value="分布式数据服务器1" style="text;html=1;align=center;verticalAlign=middle;whiteSpace=wrap;rounded=0;fontSize=16;" vertex="1" parent="1">
          <mxGeometry x="609.5" y="545" width="150" height="20" as="geometry" />
        </mxCell>
        <mxCell id="W-Ca-vhzfrDZo02QOTq5-14" value="" style="shape=cylinder3;whiteSpace=wrap;html=1;boundedLbl=1;backgroundOutline=1;size=15;fillColor=#dae8fc;strokeColor=#6c8ebf;" vertex="1" parent="1">
          <mxGeometry x="664" y="565" width="60" height="60" as="geometry" />
        </mxCell>
        <mxCell id="W-Ca-vhzfrDZo02QOTq5-15" value="数据库" style="text;html=1;align=center;verticalAlign=middle;whiteSpace=wrap;rounded=0;labelBackgroundColor=none;" vertex="1" parent="1">
          <mxGeometry x="665" y="595" width="60" height="30" as="geometry" />
        </mxCell>
        <mxCell id="W-Ca-vhzfrDZo02QOTq5-18" value="" style="rounded=1;whiteSpace=wrap;html=1;" vertex="1" parent="1">
          <mxGeometry x="234" y="270" width="240" height="210" as="geometry" />
        </mxCell>
        <mxCell id="W-Ca-vhzfrDZo02QOTq5-19" value="应用服务器1(仿真)" style="text;html=1;align=center;verticalAlign=middle;whiteSpace=wrap;rounded=0;fontSize=16;" vertex="1" parent="1">
          <mxGeometry x="244" y="275" width="140" height="30" as="geometry" />
        </mxCell>
        <mxCell id="W-Ca-vhzfrDZo02QOTq5-27" value="" style="edgeStyle=orthogonalEdgeStyle;rounded=0;orthogonalLoop=1;jettySize=auto;html=1;" edge="1" parent="1" source="W-Ca-vhzfrDZo02QOTq5-20" target="W-Ca-vhzfrDZo02QOTq5-26">
          <mxGeometry relative="1" as="geometry" />
        </mxCell>
        <mxCell id="W-Ca-vhzfrDZo02QOTq5-32" value="" style="edgeStyle=orthogonalEdgeStyle;rounded=0;orthogonalLoop=1;jettySize=auto;html=1;" edge="1" parent="1" source="W-Ca-vhzfrDZo02QOTq5-20" target="W-Ca-vhzfrDZo02QOTq5-31">
          <mxGeometry relative="1" as="geometry" />
        </mxCell>
        <mxCell id="W-Ca-vhzfrDZo02QOTq5-20" value="" style="shape=parallelogram;perimeter=parallelogramPerimeter;whiteSpace=wrap;html=1;fixedSize=1;" vertex="1" parent="1">
          <mxGeometry x="244" y="315" width="120" height="60" as="geometry" />
        </mxCell>
        <mxCell id="W-Ca-vhzfrDZo02QOTq5-21" value="- 力学计算&lt;div&gt;- 碰撞模拟&lt;br&gt;&lt;div&gt;- 运动学模拟&amp;nbsp;&lt;/div&gt;&lt;/div&gt;" style="text;html=1;align=left;verticalAlign=middle;whiteSpace=wrap;rounded=0;" vertex="1" parent="1">
          <mxGeometry x="271" y="330" width="90" height="30" as="geometry" />
        </mxCell>
        <mxCell id="W-Ca-vhzfrDZo02QOTq5-26" value="" style="verticalLabelPosition=bottom;verticalAlign=top;html=1;shape=mxgraph.basic.rect;fillColor2=none;strokeWidth=1;size=20;indent=5;" vertex="1" parent="1">
          <mxGeometry x="254" y="420" width="100" height="40" as="geometry" />
        </mxCell>
        <mxCell id="W-Ca-vhzfrDZo02QOTq5-28" value="本地缓存" style="text;html=1;align=center;verticalAlign=middle;whiteSpace=wrap;rounded=0;" vertex="1" parent="1">
          <mxGeometry x="274" y="425" width="60" height="30" as="geometry" />
        </mxCell>
        <mxCell id="W-Ca-vhzfrDZo02QOTq5-31" value="统一数据访问模块" style="rounded=1;whiteSpace=wrap;html=1;" vertex="1" parent="1">
          <mxGeometry x="390" y="320" width="70" height="50" as="geometry" />
        </mxCell>
        <mxCell id="W-Ca-vhzfrDZo02QOTq5-34" value="" style="rounded=1;whiteSpace=wrap;html=1;" vertex="1" parent="1">
          <mxGeometry x="600" y="100" width="180" height="100" as="geometry" />
        </mxCell>
        <mxCell id="W-Ca-vhzfrDZo02QOTq5-35" value="分布式缓存服务器1" style="text;html=1;align=center;verticalAlign=middle;whiteSpace=wrap;rounded=0;fontSize=16;" vertex="1" parent="1">
          <mxGeometry x="613.75" y="110" width="152.5" height="20" as="geometry" />
        </mxCell>
        <mxCell id="W-Ca-vhzfrDZo02QOTq5-41" value="" style="shape=document;whiteSpace=wrap;html=1;boundedLbl=1;fillColor=#dae8fc;strokeColor=#6c8ebf;" vertex="1" parent="1">
          <mxGeometry x="640" y="140" width="110" height="50" as="geometry" />
        </mxCell>
        <mxCell id="W-Ca-vhzfrDZo02QOTq5-42" value="远程分布式缓存" style="text;html=1;align=center;verticalAlign=middle;whiteSpace=wrap;rounded=0;" vertex="1" parent="1">
          <mxGeometry x="650" y="145" width="90" height="30" as="geometry" />
        </mxCell>
      </root>
    </mxGraphModel>
  </diagram>
</mxfile>
